# xmcd
#
# Track frame offsets:
#	150
#	21036
#	42183
#	57603
#	74541
#	101269
#	120111
#	138216
#	157433
#	179230
#
# Disc length: 2633 seconds
#
# Revision: 0
# Processed by: cddbd v1.5.2PL0 Copyright (c) Steve Scherf et al.
# Submitted via: dBpowerAMP V4.0
#
DISCID=8d0a470a
DTITLE=Various Artist - Романтика Италии
DYEAR=2004
DGENRE=Ballad
TTITLE0=Pupo -  Un Uomo Nuovo
TTITLE1=Riccardo Fogli - La Prima Notte d`Amore
TTITLE2=Space Comet (from Coctail Party)
TTITLE3=Pupo - L`Equilibrista
TTITLE4=Portofino Sky (from Portofino lounge)
TTITLE5=Annalisa Minetti - La Prima Notte
TTITLE6=Pupo - Vita Da Artista
TTITLE7=Pupo - Lo Devo Solo A Te
TTITLE8=Mediterranian Night (from Portofino Lounge)
TTITLE9=Pupo - Rouge Et Noir
EXTD=Sbarro pizza`s gift disk
EXTT0=
EXTT1=
EXTT2=
EXTT3=
EXTT4=
EXTT5=
EXTT6=
EXTT7=
EXTT8=
EXTT9=
PLAYORDER=
